<svg width="22" height="22" viewBox="0 0 22 22" xmlns="http://www.w3.org/2000/svg">
    <g clip-path="url(#clip0_698_1262)">
    <path d="M10.2867 18.975C10.2867 19.4305 9.91718 19.8 9.46172 19.8H2.475C1.11021 19.8 0 18.6898 0 17.325V11.275C0 9.91022 1.11021 8.80001 2.475 8.80001H13.6028C14.0583 8.80001 14.4278 9.16954 14.4278 9.62501C14.4278 10.0805 14.0583 10.45 13.6028 10.45H2.475C2.02007 10.45 1.65 10.8201 1.65 11.275V15.4961L4.02241 13.1237C4.86567 12.2805 6.23853 12.2805 7.08179 13.1237L9.74746 15.9248C10.0096 16.1998 9.9983 16.6348 9.7233 16.8964C9.44884 17.158 9.01217 17.1478 8.75167 16.8722L6.09781 14.0836C5.80186 13.7887 5.30235 13.7892 4.99458 14.0959L1.6694 17.4211C1.71916 17.8288 2.05411 18.15 2.475 18.15H9.46172C9.91718 18.15 10.2867 18.5195 10.2867 18.975ZM5.96406 7.47496C6.40126 7.34659 6.6521 6.88844 6.52373 6.45123C6.49526 6.35455 6.5189 6.22188 6.63598 6.14454L12.1354 2.49649C12.3181 2.37511 12.5377 2.33106 12.7553 2.37565C12.9717 2.41969 13.1576 2.54538 13.2795 2.72906L18.0012 9.86027C18.1602 10.0998 18.4223 10.2298 18.6898 10.2298C18.8466 10.2298 19.0045 10.1852 19.1447 10.0928C19.5245 9.84094 19.6287 9.32906 19.3773 8.94933L14.6556 1.81812C14.2898 1.26652 13.7317 0.889997 13.0834 0.758404C12.4357 0.627889 11.7745 0.75572 11.2234 1.12149L5.72397 4.76954C5.01659 5.23898 4.70185 6.10158 4.94033 6.91529C5.06816 7.3525 5.52793 7.60279 5.96406 7.47496ZM10.2141 11.7602C9.58122 11.7602 9.06821 12.2732 9.06821 12.906C9.06821 13.5388 9.58122 14.0518 10.2141 14.0518C10.8469 14.0518 11.3599 13.5388 11.3599 12.906C11.3599 12.2732 10.8469 11.7602 10.2141 11.7602Z" />
    <path d="M16.4998 11.55C13.7659 11.55 11.5498 13.7661 11.5498 16.5C11.5498 19.2339 13.7659 21.45 16.4998 21.45C19.2337 21.45 21.4498 19.2339 21.4498 16.5C21.4498 13.7661 19.2337 11.55 16.4998 11.55ZM19.2498 17.1875H17.1873V19.25C17.1873 19.6297 16.8795 19.9375 16.4998 19.9375C16.1201 19.9375 15.8123 19.6297 15.8123 19.25V17.1875H13.7498C13.3701 17.1875 13.0623 16.8797 13.0623 16.5C13.0623 16.1203 13.3701 15.8125 13.7498 15.8125H15.8123V13.75C15.8123 13.3703 16.1201 13.0625 16.4998 13.0625C16.8795 13.0625 17.1873 13.3703 17.1873 13.75V15.8125H19.2498C19.6295 15.8125 19.9373 16.1203 19.9373 16.5C19.9373 16.8797 19.6295 17.1875 19.2498 17.1875Z" />
    </g>
    <defs>
    <clipPath id="clip0_698_1262">
    <rect width="22" height="22" fill="white"/>
    </clipPath>
    </defs>
</svg>
