<svg xmlns="http://www.w3.org/2000/svg" width="16.234" height="16.234" viewBox="0 0 16.234 16.234">
  <path id="Add_to_collections" data-name="Add to collections" d="M12.161,17.234H6.073A5.079,5.079,0,0,1,1,12.161V6.073A5.079,5.079,0,0,1,6.073,1h6.088a5.079,5.079,0,0,1,5.073,5.073v6.088A5.079,5.079,0,0,1,12.161,17.234ZM6.073,3.029A3.047,3.047,0,0,0,3.029,6.073v6.088a3.047,3.047,0,0,0,3.044,3.044h6.088a3.047,3.047,0,0,0,3.044-3.044V6.073a3.047,3.047,0,0,0-3.044-3.044ZM12.161,8.1H10.132V6.073a1.015,1.015,0,0,0-2.029,0V8.1H6.073a1.015,1.015,0,0,0,0,2.029H8.1v2.029a1.015,1.015,0,0,0,2.029,0V10.132h2.029a1.015,1.015,0,0,0,0-2.029Z" transform="translate(-1 -1)" fill="#000"/>
</svg>
