<?xml version="1.0" encoding="UTF-8"?><svg id="a" xmlns="http://www.w3.org/2000/svg" viewBox="0 0 71.15 39.37"><g id="b"><path d="m40.63,15.76c8.44,0,16.88,0,25.32,0,.8,0,1.57.09,2.33.28,1.8.44,2.91,1.97,2.86,3.84-.05,1.74-1.2,3.09-2.97,3.49-.81.18-1.62.26-2.46.26-16.72-.01-33.44,0-50.15,0-.41,0-.83-.01-1.24,0-.27.01-.64-.14-.78.19-.14.32.2.5.4.7,2.34,2.34,4.69,4.67,7.04,7,.67.67,1.37,1.33,1.88,2.14,1,1.61.74,3.46-.67,4.71-1.43,1.28-3.24,1.37-4.74.18-.58-.46-1.1-1.01-1.62-1.53-4.63-4.62-9.25-9.24-13.87-13.86-.35-.35-.7-.71-1.01-1.1-1.24-1.55-1.3-3.25.04-4.72,1.7-1.86,3.53-3.6,5.31-5.39,3.39-3.4,6.78-6.79,10.17-10.19.65-.65,1.32-1.27,2.2-1.56,1.38-.47,2.95.03,3.9,1.21,1.02,1.26,1.22,2.86.41,4.15-.39.63-.87,1.21-1.39,1.73-2.45,2.47-4.92,4.91-7.39,7.35-.26.26-.71.51-.6.87.16.51.72.26,1.09.26,8.65.01,17.3.01,25.95.01Z"/></g></svg>