<?xml version="1.0" encoding="UTF-8"?><svg id="a" xmlns="http://www.w3.org/2000/svg" viewBox="0 0 24 23"><rect id="b" width="24" height="23" rx="7" ry="7" fill="#fff"/><g id="c"><rect id="d" x=".67" y="10.87" width="12" height="11.5" rx="3.5" ry="3.5" fill="#fff"/><path id="e" d="m8.67,12.37h-4c-1.38,0-2.5,1.12-2.5,2.5v3.5c0,1.38,1.12,2.5,2.5,2.5h4c1.38,0,2.5-1.12,2.5-2.5v-3.5c0-1.38-1.12-2.5-2.5-2.5Zm-.26,4.71l-2.38,1.45c-.26.16-.61.08-.77-.18-.05-.09-.08-.18-.08-.28v-2.91c0-.31.26-.55.57-.55.1,0,.2.03.28.08l2.38,1.45c.26.15.34.48.19.74-.05.08-.11.14-.19.19Z" fill="#e44242"/></g><g id="f"><path id="g" d="m15.99,20.87c-1.42-.04-2.54-1.16-2.5-2.5v-3.5c-.04-1.34,1.08-2.46,2.5-2.5h4c1.42.04,2.54,1.16,2.5,2.5v3.5c.04,1.34-1.08,2.46-2.5,2.5h-4Z" fill="#ff8924"/><path id="h" d="m16.83,19.35c-.47.02-.91-.22-1.13-.61-.13-.26-.15-.56-.04-.83.15-.37.45-.67.83-.84.32-.13.67-.18,1.02-.16v-2.56c0-.25.21-.46.48-.46.13,0,.26.05.35.14l.28.27c.35.33.81.51,1.3.51.27,0,.48.2.48.45s-.22.45-.48.45c-.51,0-1.01-.13-1.44-.38v2.64c-.03.53-.38.99-.9,1.2-.23.11-.48.16-.74.16h0Zm.54-1.53c-.16,0-.33.02-.48.07-.15.06-.27.17-.33.31-.02.04-.02.09,0,.13.05.1.31.16.6.03.18-.06.31-.21.35-.38v-.16s-.09,0-.13,0h0Z" fill="#fff"/></g><g id="i"><path id="j" d="m16.24.63h2.83c.81,0,1.69.68,2.74,1.78,1.04,1.11,1.43,1.51,1.43,2.64v3.58c0,1.93-1.57,3.5-3.5,3.5h-3.5c-1.93,0-3.5-1.57-3.5-3.5v-4.5c0-1.93,1.57-3.5,3.5-3.5Z" fill="#fff"/><g id="k"><path id="l" d="m19.63,5.13h2.43c-.07-.24-.2-.47-.37-.65l-1.91-1.91c-.18-.18-.4-.31-.65-.37v2.44c0,.28.22.5.5.5Z" fill="#519b7a"/><path id="m" d="m16.62,10.63h3c1.38,0,2.5-1.12,2.5-2.5v-2h-2.5c-.83,0-1.5-.67-1.5-1.5v-2.5h-1.5c-1.38,0-2.5,1.12-2.5,2.5v3.5c0,1.38,1.12,2.5,2.5,2.5Z" fill="#519b7a"/></g></g><g id="n"><rect id="o" x=".85" y=".88" width="12" height="11" rx="3.5" ry="3.5" fill="#fff"/><g id="p"><path id="q" d="m8.84,2.37h-4c-1.38,0-2.5,1.12-2.5,2.5v2.57l1.8-1.75c.44-.43,1.15-.43,1.58,0l1.52,1.52.61-.54c.44-.42,1.14-.42,1.57.02l1.86,1.69c.04-.17.06-.35.06-.52v-3c0-1.38-1.12-2.5-2.5-2.5Zm-.25,3c-.41,0-.75-.34-.75-.75s.34-.75.75-.75.75.34.75.75-.34.75-.75.75Z" fill="#427ee4"/><path id="r" d="m8.55,7.41l-.98.88c-.2.18-.5.17-.69-.02l-1.86-1.86s-.13-.05-.18,0l-2.36,2.28c.35,1,1.29,1.68,2.35,1.68h4c.79,0,1.54-.38,2.01-1.02l-2.11-1.93c-.04-.06-.13-.07-.18-.02,0,0,0,0,0,0h0Z" fill="#427ee4"/></g></g></svg>