<svg xmlns="http://www.w3.org/2000/svg" width="17.999" height="17.999" viewBox="0 0 17.999 17.999">
  <g id="_3D_icon_-_for_asset_card" data-name="&apos;3D&apos; icon - for asset card" transform="translate(-160.453 -441.743)">
    <path id="Union_1424" data-name="Union 1424" d="M8732,12084a5.16,5.16,0,0,1-5-5.295v-7.412a5.16,5.16,0,0,1,5-5.292h8a5.157,5.157,0,0,1,5,5.292v7.412a5.158,5.158,0,0,1-5,5.295Z" transform="translate(-8566.547 -11624.258)" fill="#01adba"/>
    <path id="Path_1013364" data-name="Path 1013364" d="M0,6.221c0-.934,0-1.868,0-2.8a.59.59,0,0,1,.313-.552c.494-.282.994-.552,1.489-.831C2.618,1.577,3.43,1.114,4.244.653,4.563.473,4.892.31,5.2.116a.78.78,0,0,1,.878.049c.432.249.866.5,1.3.741q1,.568,2.009,1.134c.488.275.975.555,1.468.82a.62.62,0,0,1,.355.573q.009,2.788,0,5.575a.627.627,0,0,1-.353.575c-.734.407-1.46.827-2.19,1.239-.513.289-1.03.573-1.545.86-.387.216-.776.427-1.157.653a.72.72,0,0,1-.789-.019c-.505-.292-1.013-.579-1.521-.867Q2.53,10.81,1.4,10.175C1.016,9.957.629,9.743.247,9.52A.484.484,0,0,1,0,9.081c0-.954,0-1.907,0-2.861ZM1.255,4.5V6.849c0,.564,0,1.128,0,1.692a.214.214,0,0,0,.074.161c.472.275.949.542,1.425.811q.911.514,1.823,1.028c.128.072.259.136.4.211V9.978c0-1.084,0-2.169,0-3.253a.194.194,0,0,0-.112-.2c-.187-.1-.372-.2-.556-.3-.434-.244-.867-.491-1.3-.735-.581-.326-1.162-.651-1.762-.987m8.7,0c-.112.058-.213.106-.31.16q-1.03.578-2.058,1.159c-.414.234-.825.474-1.242.7a.2.2,0,0,0-.113.206q0,1.927,0,3.854v.169c.407-.225.795-.436,1.179-.653.81-.457,1.618-.918,2.43-1.373a.191.191,0,0,0,.122-.194c0-1.294,0-2.588,0-3.883,0-.046,0-.093-.007-.149M1.889,3.417l2.061,1.16c.427.241.856.479,1.279.728.231.136.45.246.686.017a.477.477,0,0,1,.1-.05L8.484,3.882c.269-.152.537-.306.817-.465l-1.03-.583q-.655-.37-1.311-.74t-1.3-.719a.16.16,0,0,0-.125,0c-.107.048-.21.106-.312.163q-.992.56-1.983,1.121c-.446.252-.894.5-1.357.76" transform="translate(163.846 444.521)" fill="#fff" stroke="#fff" stroke-width="0.4"/>
  </g>
</svg>
