<svg xmlns="http://www.w3.org/2000/svg" width="24" height="22" viewBox="0 0 24 22">
  <g id="Image-_file_type_icon" data-name="Image- file type icon" transform="translate(-401 -618)">
    <rect id="Rectangle_331391" data-name="Rectangle 331391" width="24" height="22" rx="7" transform="translate(401 618)" fill="#fff"/>
    <g id="_4" data-name="4" transform="translate(403.995 619.997)">
      <path id="Path_1013290" data-name="Path 1013290" d="M13,1H5A5.006,5.006,0,0,0,0,6v5.141L3.61,7.646a2.248,2.248,0,0,1,3.166.011L9.821,10.7l1.211-1.084a2.236,2.236,0,0,1,3.139.038l3.716,3.386A4.984,4.984,0,0,0,18,12V6A5.006,5.006,0,0,0,13,1Zm-.5,6A1.5,1.5,0,1,1,14,5.5,1.5,1.5,0,0,1,12.5,7Z" fill="#427ee4"/>
      <path id="Path_1013291" data-name="Path 1013291" d="M12.406,11.071,10.45,12.824a1,1,0,0,1-1.374-.038L5.363,9.072a.249.249,0,0,0-.352,0L.3,13.636A4.992,4.992,0,0,0,5,17h8a4.983,4.983,0,0,0,4.013-2.046L12.79,11.1a.262.262,0,0,0-.384-.032Z" fill="#427ee4"/>
    </g>
  </g>
</svg>
