<svg xmlns="http://www.w3.org/2000/svg" width="17.999" height="17.999" viewBox="0 0 17.999 17.999">
  <g id="_Audio_track_icon_-_for_asset_card" data-name="&apos;Audio track&apos; icon - for asset card" transform="translate(-160.453 -442.024)">
    <path id="Union_1422" data-name="Union 1422" d="M8732,12084a5.16,5.16,0,0,1-5-5.295v-7.412a5.16,5.16,0,0,1,5-5.292h8a5.157,5.157,0,0,1,5,5.292v7.412a5.158,5.158,0,0,1-5,5.295Z" transform="translate(-8566.547 -11623.977)" fill="#ff8924"/>
    <path id="a2" d="M6.5,14.536a2.448,2.448,0,0,1-2.269-1.3,2.256,2.256,0,0,1-.089-1.748A3.177,3.177,0,0,1,5.8,9.713a4.571,4.571,0,0,1,2.05-.332V3.963A.963.963,0,0,1,9.5,3.282l.564.564a3.711,3.711,0,0,0,2.607,1.08.963.963,0,0,1,0,1.926,5.654,5.654,0,0,1-2.889-.8v5.6a2.95,2.95,0,0,1-1.792,2.543,3.435,3.435,0,0,1-1.484.348ZM7.589,11.3a2.491,2.491,0,0,0-.956.15,1.272,1.272,0,0,0-.668.667.361.361,0,0,0-.006.268c.1.207.628.339,1.2.067a1.109,1.109,0,0,0,.7-.807v-.337c-.084-.006-.172-.008-.263-.008Z" transform="translate(160.635 442.252)" fill="#fff"/>
  </g>
</svg>
