<svg xmlns="http://www.w3.org/2000/svg" width="24" height="23" viewBox="0 0 24 23">
  <g id="Video_-_file_type_icon" data-name="Video - file type icon" transform="translate(-669 -614)">
    <rect id="Rectangle_331391" data-name="Rectangle 331391" width="24" height="23" rx="7" transform="translate(669 614)" fill="#fff"/>
    <path id="_6" data-name="6" d="M13,0H5A5.006,5.006,0,0,0,0,5v7a5.006,5.006,0,0,0,5,5h8a5.006,5.006,0,0,0,5-5V5A5.006,5.006,0,0,0,13,0Zm-.526,9.426L7.711,12.332A1.119,1.119,0,0,1,6,11.407V5.593a1.119,1.119,0,0,1,1.711-.926l4.764,2.907A1.078,1.078,0,0,1,12.474,9.426Z" transform="translate(671.997 616.998)" fill="#e44242"/>
  </g>
</svg>
