<svg xmlns="http://www.w3.org/2000/svg" width="8.924" height="8.086" viewBox="0 0 8.924 8.086">
  <g id="Checkmark_icon_-_Filters" data-name="Checkmark icon - Filters" transform="translate(-2.547 -11.985)">
    <path id="Path_1013390" data-name="Path 1013390" d="M9.1,1.19a.96.96,0,0,0-1.347.162L3.645,6.585l-1.417-1.7A.96.96,0,0,0,.753,6.113L2.93,8.726c.02.024.049.032.07.054a.9.9,0,0,0,.074.086.921.921,0,0,0,.134.072.937.937,0,0,0,.1.054.956.956,0,0,0,.358.079h0a.955.955,0,0,0,.372-.084.935.935,0,0,0,.1-.059.91.91,0,0,0,.14-.08.9.9,0,0,0,.072-.09c.02-.02.049-.03.068-.054L9.267,2.538A.96.96,0,0,0,9.1,1.19Z" transform="translate(2 11)" fill="#fdfdfd"/>
  </g>
</svg>
