<svg xmlns="http://www.w3.org/2000/svg" width="18" height="16" viewBox="0 0 18 16">
  <g id="_Download_icon_-_on_details_panel" data-name="&apos;Download&apos; icon - on details panel" transform="translate(0 -1)">
    <path id="Path_1013386" data-name="Path 1013386" d="M17,6a1,1,0,0,0-1,1v5a3,3,0,0,1-3,3H5a3,3,0,0,1-3-3V7A1,1,0,0,0,0,7v5a5.006,5.006,0,0,0,5,5h8a5.006,5.006,0,0,0,5-5V7A1,1,0,0,0,17,6Z"/>
    <path id="Path_1013387" data-name="Path 1013387" d="M9,1A1,1,0,0,0,8,2V9.586L6.707,8.293A1,1,0,0,0,5.293,9.707l3,3a1,1,0,0,0,1.414,0l3-3a1,1,0,0,0-1.414-1.414L10,9.586V2A1,1,0,0,0,9,1Z"/>
  </g>
</svg>
