<?xml version="1.0" encoding="utf-8"?>
<!-- Generator: Adobe Illustrator 27.8.1, SVG Export Plug-In . SVG Version: 6.00 Build 0)  -->
<svg version="1.1" id="Layer_1" xmlns="http://www.w3.org/2000/svg" xmlns:xlink="http://www.w3.org/1999/xlink" x="0px" y="0px"
	 viewBox="0 0 55.4 54" style="enable-background:new 0 0 55.4 54;" xml:space="preserve">
<style type="text/css">
	.st0{fill:#000B1D;}
	.st1{clip-path:url(#SVGID_00000058564841745778545690000008837070527994875297_);}
	.st2{clip-path:url(#SVGID_00000086660277769164477950000015358628279294265482_);}
	.st3{clip-path:url(#SVGID_00000127031205548145471440000003825446483072708227_);}
</style>
<path class="st0" d="M9.8,0h35.8c5.4,0,9.8,4.4,9.8,9.8v34.4c0,5.4-4.4,9.8-9.8,9.8H9.8C4.4,54,0,49.6,0,44.2V9.8C0,4.4,4.4,0,9.8,0
	z"/>
<g>
	<g>
		<defs>
			<path id="SVGID_1_" d="M33.5,15.8c-1-2.3-3.2-3.8-5.8-3.8S23,13.5,22,15.8l-7.9,18.8C13,37.2,14.9,40,17.7,40h8.8
				c2.2,0,3.9-1.8,3.9-3.9s-1.8-3.9-3.9-3.9c-0.1,0-1.5,0-1.5,0c-0.6,0-1.1-0.6-0.8-1.2l2.8-6.7c0.3-0.7,1.3-0.7,1.6,0l5.7,13.4
				c0.8,1.8,2.3,2.4,3.6,2.4c2.8,0,4.7-2.9,3.6-5.4L33.5,15.8L33.5,15.8z"/>
		</defs>
		<clipPath id="SVGID_00000144340154913654596560000017462212298228841873_">
			<use xlink:href="#SVGID_1_"  style="overflow:visible;"/>
		</clipPath>
		<g style="clip-path:url(#SVGID_00000144340154913654596560000017462212298228841873_);">
			<g>
				<g>
					<defs>
						<rect id="SVGID_00000138542960415990072520000017967182310311022483_" x="8.8" y="7" width="38" height="38.1"/>
					</defs>
					<clipPath id="SVGID_00000061443775267424378770000016656657437962273966_">
						<use xlink:href="#SVGID_00000138542960415990072520000017967182310311022483_"  style="overflow:visible;"/>
					</clipPath>
					<g style="clip-path:url(#SVGID_00000061443775267424378770000016656657437962273966_);">
						<g>
							<g>
								<defs>
									<rect id="SVGID_00000052083423267279585090000016415357301236580014_" x="8.8" y="7" width="38" height="38.1"/>
								</defs>
								<clipPath id="SVGID_00000129908513907984958660000018107424783919079071_">
									<use xlink:href="#SVGID_00000052083423267279585090000016415357301236580014_"  style="overflow:visible;"/>
								</clipPath>
								<g style="clip-path:url(#SVGID_00000129908513907984958660000018107424783919079071_);">
									
										<image style="overflow:visible;enable-background:new    ;" width="80" height="80" xlink:href="52226B2E.png"  transform="matrix(0.48 0 0 0.48 8.64 6.72)">
									</image>
								</g>
							</g>
						</g>
					</g>
				</g>
			</g>
		</g>
	</g>
</g>
</svg>
