<svg xmlns="http://www.w3.org/2000/svg" width="16" height="16" viewBox="0 0 16 16">
  <path id="_Hide_Filters_icon_-_for_filters_rail_header" data-name="&apos;Hide Filters&apos; icon - for filters rail header" d="M6,1h6a5.006,5.006,0,0,1,5,5v6a5.006,5.006,0,0,1-5,5H6a5.006,5.006,0,0,1-5-5V6A5.006,5.006,0,0,1,6,1ZM3,12a3,3,0,0,0,3,3h6a3,3,0,0,0,3-3V10H9.414l1.293,1.293a1,1,0,1,1-1.414,1.414l-3-3a1,1,0,0,1,0-1.414l3-3a1,1,0,0,1,1.414,1.414L9.414,8H15V6a3,3,0,0,0-3-3H6A3,3,0,0,0,3,6Z" transform="translate(-1 -1)"/>
</svg>
