<svg xmlns="http://www.w3.org/2000/svg" width="18" height="18" viewBox="0 0 18 18">
  <g id="_Full_screen_icon_-_on_details_panel" data-name="&apos;Full screen&apos; icon - on details panel" transform="translate(-1440 -154)">
    <g id="SX_Fullscreen_18_N" transform="translate(1440 154)">
      <path id="Path_1013371" data-name="Path 1013371" d="M17,0H14a1,1,0,0,0,0,2h2V4.026a1,1,0,0,0,2,0V1A1,1,0,0,0,17,0Z" fill="#444"/>
      <path id="Path_1013372" data-name="Path 1013372" d="M4,16H2V14a1,1,0,0,0-2,0v3a1,1,0,0,0,1,1H4a1,1,0,0,0,0-2Z" fill="#444"/>
      <path id="Path_1013373" data-name="Path 1013373" d="M17,13a1,1,0,0,0-1,1v2H13.974a1,1,0,0,0,0,2H17a1,1,0,0,0,1-1V14A1,1,0,0,0,17,13Z" fill="#444"/>
      <path id="Path_1013374" data-name="Path 1013374" d="M1,5A1,1,0,0,0,2,4V2H4A1,1,0,0,0,4,0H1A1,1,0,0,0,0,1V4A1,1,0,0,0,1,5Z" fill="#444"/>
      <rect id="Rectangle_331623" data-name="Rectangle 331623" width="10" height="10" rx="1" transform="translate(4 4)" fill="#444"/>
    </g>
  </g>
</svg>
