<?xml version="1.0" encoding="UTF-8"?><svg id="a" xmlns="http://www.w3.org/2000/svg" viewBox="0 0 17.26 17.14"><path d="m16.3,8.57c-.17,10.15-15.18,10.15-15.35,0,.17-10.15,15.18-10.15,15.35,0Z" fill="none" stroke="#444445" stroke-miterlimit="10" stroke-width="1.92"/><path d="m8.63,13.6c-.5,0-.91-.41-.91-.92,0,0,0-4.25,0-4.25,0-.51.41-.92.91-.92.5,0,.91.41.91.92v4.25c0,.51-.41.92-.91.92Z" fill="#444445"/><path d="m10.08,5.19c.03,1.89-2.93,1.89-2.9,0-.03-1.89,2.93-1.89,2.9,0Z" fill="#444445"/></svg>