<svg xmlns="http://www.w3.org/2000/svg" width="16.98" height="16.98" viewBox="0 0 16.98 16.98">
  <g id="_Zoom_in_-_icon_for_full_screen_pill" data-name="&apos;Zoom in&apos; - icon for full screen pill" transform="translate(-1.02 -1.02)">
    <path id="Path_1013402" data-name="Path 1013402" d="M12,8H10V6A1,1,0,0,0,8,6V8H6a1,1,0,0,0,0,2H8v2a1,1,0,0,0,2,0V10h2a1,1,0,0,0,0-2Z" fill="#444"/>
    <path id="Path_1013403" data-name="Path 1013403" d="M15.323,13.882a8.02,8.02,0,1,0-1.41,1.418l2.376,2.4A1,1,0,1,0,17.711,16.3l-2.388-2.415ZM9,15a6,6,0,1,1,6-6A6.007,6.007,0,0,1,9,15Z" fill="#444"/>
  </g>
</svg>
