<svg xmlns="http://www.w3.org/2000/svg" width="16.98" height="16.98" viewBox="0 0 16.98 16.98">
  <g id="_Zoom_out_-_icon_for_full_screen_pill" data-name="&apos;Zoom out&apos; - icon for full screen pill" transform="translate(-1.01 -1.01)">
    <path id="Path_1013404" data-name="Path 1013404" d="M15.315,13.874a8.016,8.016,0,1,0-1.409,1.417l2.375,2.4A1,1,0,1,0,17.7,16.288l-2.386-2.413ZM9,14.992a6,6,0,1,1,6-6A6,6,0,0,1,9,14.992Z" fill="#444"/>
    <path id="Path_1013405" data-name="Path 1013405" d="M12,8H6a1,1,0,0,0,0,2h6a1,1,0,0,0,0-2Z" transform="translate(-0.004 -0.005)" fill="#444"/>
  </g>
</svg>
